<?xml version="1.0" encoding="utf-8"?>
<!-- Generator: Adobe Illustrator 16.0.0, SVG Export Plug-In . SVG Version: 6.00 Build 0)  -->
<!DOCTYPE svg PUBLIC "-//W3C//DTD SVG 1.1//EN" "http://www.w3.org/Graphics/SVG/1.1/DTD/svg11.dtd">
<svg version="1.1" id="Capa_3" xmlns="http://www.w3.org/2000/svg" xmlns:xlink="http://www.w3.org/1999/xlink" x="0px" y="0px"
	 width="1407.141px" height="1080px" viewBox="0 0 1407.141 1080" enable-background="new 0 0 1407.141 1080" xml:space="preserve">
<g>
	<path fill="#FFFFFF" d="M1360.221,1085C1275.939,898.416,1155,703.377,1115.716,605.434
		c-39.088-97.442-100.924-387.352-244.205-445.19c-143.276-57.84-261.393-34.451-336.472,37.729
		c-125.317,122.87-159.158,312.521-216.665,463.585C263.449,826.451,217.223,922.204,163.162,1085H1360.221z"/>
</g>
<path fill="#FFFFFF" d="M917.196,270.097c0,0,120.789-14.88,152.147-96.654c31.366-81.771-50.018-121.781-106.978-87.934
	c-35.759,21.255-74.306,83.965-84.862,132.922C871.246,247.44,917.196,270.097,917.196,270.097z"/>
<path fill="#CBC9E5" d="M912.836,252.022c0,0,101.832-14.079,122.882-68.974c21.059-54.896-33.578-81.756-71.813-59.033
	C925.669,146.74,912.836,252.022,912.836,252.022z"/>
<path fill="#FFFFFF" d="M564.256,276.499c0,0,36.938-43.13,41.152-72.25c7.031-48.534-21.801-98.056-60.508-136.764
	c-61.93-61.928-131.6-3.868-123.858,61.931C428.782,195.217,564.256,276.499,564.256,276.499z"/>
<path fill="#CBC9E5" d="M573.855,215.759c0,0,3.793-102.727-46.62-132.98c-50.413-30.257-86.343,18.896-70.594,60.494
	C472.393,184.869,573.855,215.759,573.855,215.759z"/>
<g>
	<path fill="#4A4A4A" d="M1131.771,629.219c-11.031,10.548-19.821,23.449-28.149,36.156c-10.5,16.024-20.174,32.581-30.072,48.979
		c-20.288,33.604-41.124,68.537-70.2,95.404c-11.619,10.737-25.099,19.78-40.454,23.619c-5.986,1.495-11.752,1.901-18.161,1.335
		c-0.2-0.019-2.463-0.3-0.73-0.06c-0.676-0.094-1.348-0.213-2.02-0.332c-1.338-0.235-2.66-0.547-3.978-0.881
		c-1.313-0.334-2.608-0.738-3.896-1.164c-0.646-0.214-1.281-0.45-1.919-0.686c-1.774-0.656-0.333-0.086-1.365-0.535
		c-11.6-5.046-19.493-12.093-28.056-21.443c-9.513-10.39-17.254-22.003-24.808-34.381c-17.247-28.265-31.312-58.342-47.055-87.438
		c-14.559-26.908-30.552-54.643-53.244-75.599c-15.902-14.686-35.619-24.727-57.596-24.851c-9.676-0.056-9.67,14.944,0,15
		c6.745,0.038,10.604,0.599,17.243,2.559c5.941,1.753,9.99,3.715,15.763,7.227c10.884,6.62,20.304,16.172,28.892,26.609
		c19.826,24.099,34.68,53.666,49.18,81.636c14.721,28.396,28.896,57.514,47.787,83.445c14.942,20.515,34.759,41.309,61.081,45.298
		c33.566,5.089,63.104-16.363,84.837-39.618c27.698-29.64,48.347-65.435,69.139-100.013c8.267-13.747,16.525-27.514,25.438-40.854
		c6.94-10.387,13.885-20.14,22.95-28.807C1149.382,633.13,1138.76,622.537,1131.771,629.219L1131.771,629.219z"/>
</g>
<g>
	<g opacity="0.3">
		<path fill="#E61F68" d="M827.782,332.759C710.13,282.233,602.834,432.06,654.601,527.871
			c31.059,55.752,96.943,72.301,160.003,71.431c48.002-0.87,82.829-19.163,106.358-59.23
			c51.767-91.464-7.533-198.604-115.77-216.896"/>
	</g>
	<g>
		<g>
			<path fill="#333333" d="M788.61,367.539c-0.032,54.725-2.875,109.397-4.332,164.092c-1.394,52.325-2.096,105.116,4.332,157.166
				c0.778,6.313,10.789,6.39,10,0c-6.354-51.467-5.699-103.64-4.378-155.381c1.411-55.293,4.346-110.557,4.378-165.877
				C798.614,361.091,788.614,361.092,788.61,367.539L788.61,367.539z"/>
		</g>
		<g>
			<path fill="#CB0767" d="M753.534,425.596c0-1.289,0-2.578,0-3.867c0-1.363-1.138-2.5-2.5-2.5c-1.363,0-2.5,1.137-2.5,2.5
				c0,1.289,0,2.578,0,3.867c0,1.363,1.137,2.5,2.5,2.5C752.396,428.096,753.534,426.957,753.534,425.596L753.534,425.596z"/>
		</g>
		<g>
			<path fill="#CB0767" d="M720.069,401.002c3.225,0,3.225-5,0-5C716.844,396.002,716.845,401.002,720.069,401.002L720.069,401.002z
				"/>
		</g>
		<g>
			<path fill="#CB0767" d="M692.976,443.579c1.29,0,2.58,0,3.869,0c1.363,0,2.5-1.137,2.5-2.5c0-1.362-1.137-2.5-2.5-2.5
				c-1.29,0-2.58,0-3.869,0c-1.362,0-2.5,1.138-2.5,2.5C690.476,442.443,691.613,443.579,692.976,443.579L692.976,443.579z"/>
		</g>
		<g>
			<path fill="#CB0767" d="M743.294,461.803c-0.267,0-0.534,0-0.801,0c-1.363,0-2.5,1.137-2.5,2.5s1.137,2.5,2.5,2.5
				c1.824,0,3.648,0,5.473,0c1.362,0,2.5-1.137,2.5-2.5s-1.138-2.5-2.5-2.5c-0.268,0-0.534,0-0.801,0c-1.363,0-2.5,1.137-2.5,2.5
				s1.137,2.5,2.5,2.5c0.267,0,0.533,0,0.801,0c1.362,0,2.5-1.137,2.5-2.5s-1.138-2.5-2.5-2.5c-1.824,0-3.648,0-5.473,0
				c-1.363,0-2.5,1.137-2.5,2.5s1.137,2.5,2.5,2.5c0.267,0,0.534,0,0.801,0c1.363,0,2.5-1.137,2.5-2.5
				S744.657,461.803,743.294,461.803L743.294,461.803z"/>
		</g>
		<g>
			<path fill="#CB0767" d="M859.409,397.134c3.225,0,3.225-5,0-5C856.184,392.134,856.185,397.134,859.409,397.134L859.409,397.134z
				"/>
		</g>
		<g>
			<path fill="#CB0767" d="M853.04,437.209c0.002,4.62,0.602,10.022,6.369,10.241c3.226,0.123,3.214-4.878,0-5
				c-1.858-0.07-1.368-3.807-1.369-5.241C858.038,433.985,853.038,433.984,853.04,437.209L853.04,437.209z"/>
		</g>
		<g>
			<path fill="#CB0767" d="M905.856,439.709c1.291,0,2.581,0,3.872,0c1.363,0,2.5-1.138,2.5-2.5c0-1.363-1.137-2.5-2.5-2.5
				c-1.291,0-2.581,0-3.872,0c-1.363,0-2.5,1.137-2.5,2.5C903.356,438.572,904.493,439.709,905.856,439.709L905.856,439.709z"/>
		</g>
		<g>
			<path fill="#CB0767" d="M890.374,401.002c1.29,0,2.581,0,3.871,0c1.363,0,2.5-1.138,2.5-2.5c0-1.363-1.137-2.5-2.5-2.5
				c-1.29,0-2.581,0-3.871,0c-1.363,0-2.5,1.137-2.5,2.5C887.874,399.865,889.011,401.002,890.374,401.002L890.374,401.002z"/>
		</g>
	</g>
	<g>
		<path fill="#333333" d="M794.42,372.412c8.879-12.44,21.299-23.136,27.438-37.365c2.438-5.658,3.603-12.454-0.36-17.753
			c-5.199-6.951-14.677-8.326-22.734-9.097c-8.97-0.856-18.491-0.736-27.417,0.421c-7.858,1.021-18.922,3.642-20.105,13.045
			c-1.104,8.767,5.648,18.02,10.474,24.686c5.967,8.244,12.677,15.836,21.295,21.391c19.908,12.831,39.459-14.457,47.15-29.901
			c3.771-7.576,5.588-15.687,1.171-23.35c-2.951-5.12-8.109-8.541-13.481-10.68c-12.211-4.864-26.63-3.871-39.122-0.68
			c-11.064,2.825-24.271,8.758-29.397,19.721c-5.556,11.877,1.938,23.261,10.917,30.889c6.272,5.328,14.595,11.902,22.986,12.934
			c7.289,0.896,13.71-8.732,16.395-14.214c3.984-8.135,5.902-17.675,6.711-26.636c0.636-7.036-2.691-20.72-11.842-20.72
			c-9.163,0-14.74,12.193-15.667,19.934c-1.153,9.636,1.165,19.134,1.317,28.74c0.066,4.24,5.469,6.781,8.534,3.536
			c12.891-13.641,11.229-41.762-8.402-48.021c-2.064-0.659-4.625,0.391-5.646,2.298c-5.761,10.756-5.615,23.315,1.238,33.556
			c2.404,3.593,7.821,3.087,9.139-1.194c4.232-13.749-1.46-28.087-17.216-28.641c-2.173-0.076-4.298,1.576-4.821,3.671
			c-3.882,15.526,1.601,29.983,14.692,39.114c2.68,1.869,6.548-0.057,7.345-2.988c3.96-14.569-2.409-33.328-18.365-37.142
			c0,3.214,0,6.428,0,9.643c7.862-2.468,16.027-9.152,24.611-7.436c-1.164-1.164-2.328-2.328-3.492-3.492
			c1.019,3.6,1.019,7.376,0,10.977c-1.757,6.219,7.893,8.854,9.644,2.658c1.486-5.262,1.486-11.031,0-16.293
			c-0.448-1.588-1.812-3.156-3.492-3.492c-11.384-2.276-19.598,4.193-29.928,7.437c-4.542,1.426-5.002,8.446,0,9.643
			c10.601,2.534,13.94,15.417,11.381,24.841c2.448-0.996,4.896-1.992,7.345-2.987c-9.341-6.516-12.831-16.886-10.097-27.821
			c-1.607,1.224-3.214,2.447-4.821,3.671c9.152,0.321,9.772,8.837,7.573,15.982c3.046-0.398,6.093-0.797,9.139-1.194
			c-4.866-7.271-5.389-15.714-1.238-23.462c-1.882,0.766-3.765,1.532-5.646,2.298c12.183,3.885,11.534,23.325,3.991,31.308
			c2.845,1.18,5.689,2.357,8.535,3.536c-0.153-9.698-3.158-19.86-1.106-29.497c0.563-2.639,2.199-5.092,3.646-7.323
			c0.188-0.291,1.287-1.721,1.672-1.878c-1.014,0.416-1.172-0.712-0.163,0.796c2.975,4.442,2.382,9.512,1.557,14.486
			c-1.55,9.354-4.086,18.568-10.885,25.479c-1.976,2.007-4.954-0.706-6.928-1.896c-4.566-2.752-8.978-5.694-12.917-9.298
			c-4.065-3.718-7.804-8.577-7.678-13.863c0.088-3.687,3.263-7.43,6.765-10.251c9.356-7.538,23.454-10.042,35.12-9.988
			c8.484,0.037,24.414,2.607,24.889,13.201c0.191,4.306-2.369,8.806-4.369,12.437c-2.631,4.778-5.877,9.24-9.37,13.418
			c-3.435,4.108-7.342,7.714-12.028,10.358c-5.214,2.941-10.081-0.358-14.198-3.639c-7.534-6.001-13.646-14.07-18.636-22.246
			c-1.961-3.213-4.213-7.037-4.393-10.896c-0.054-1.144,0.381-1.17,1.643-1.963c1.94-1.221,4.312-1.708,6.519-2.194
			c8.508-1.876,17.849-1.419,26.512-1.028c5.302,0.239,16.838,0.787,18.319,6.859c1.389,5.691-6.333,14.842-9.822,19.421
			c-5.98,7.848-12.766,15.054-18.503,23.093C782.03,372.627,790.709,377.613,794.42,372.412L794.42,372.412z"/>
	</g>
</g>
<g>
	<g>
		<path fill="#EDEDED" d="M804.191,323.695c-0.883-0.673-1.838-2.167-0.907-0.443c-0.844-1.564,0.112,0.702,0.215,1.203
			c-0.398-1.938-0.381,1.98-0.069,0.27c-0.281,0.834-0.278,0.96,0.009,0.376c-0.615,1.417,0.357-0.03-0.766,1.191
			c-2.766,3.006-2.979,7.627,0,10.605c2.8,2.799,7.839,3.009,10.607,0c6.968-7.574,6.89-19.734-1.52-26.154
			c-3.258-2.487-8.386-0.511-10.261,2.691C799.242,317.288,800.948,321.219,804.191,323.695L804.191,323.695z"/>
	</g>
</g>
<g>
	<path fill="#4A4A4A" d="M672.299,276.231c2.277,8.671,2.177,18.02,2.462,26.918c0.359,11.229,0.374,22.479,1.163,33.689
		c0.675,9.593,15.68,9.657,15,0c-0.789-11.209-0.826-22.461-1.163-33.689c-0.307-10.213-0.387-20.963-2.998-30.905
		C684.309,262.895,669.84,266.865,672.299,276.231L672.299,276.231z"/>
</g>
<g>
	<path fill="#4A4A4A" d="M884.356,273.882c-0.261-0.535-0.748-2.726-0.693-2.065c0.057,0.693,0.056,1.393,0.061,2.087
		c0.018,2.013-0.079,4.027-0.167,6.037c-0.265,6.09-0.67,12.173-0.98,18.261c-0.612,11.994-1.726,24.872,1.024,36.688
		c2.193,9.419,16.655,5.424,14.466-3.987c-2.351-10.094-0.958-23.801-0.367-35.073c0.308-5.867,0.695-11.73,0.93-17.602
		c0.16-3.988,0.473-8.231-1.318-11.915C893.079,257.613,880.146,265.222,884.356,273.882L884.356,273.882z"/>
</g>
<path fill="#4A4A4A" d="M59.083,1085h22.422c-16.294-13.087-31.192-27.899-41.209-45.824c-6.968-12.469-9.939-25.796-8.398-40.185
	c1.818-16.979,11.727-33.707,22.155-47.453c28.584-37.681,70.958-61.808,109.98-87.103c25.802-16.726,51.64-33.513,75.965-52.357
	c19.353-14.991,39.494-31.764,51.692-53.398c4.757-8.438-8.203-15.994-12.952-7.57c-8.995,15.953-23.007,28.709-36.885,40.365
	c-17.896,15.03-37.276,28.271-56.703,41.223c-20.417,13.61-41.161,26.722-61.626,40.258c-18.831,12.455-38.063,25.019-54.596,40.472
	c-27.633,25.829-57.004,61.858-51.887,102.358C20.579,1043.786,38.643,1066.39,59.083,1085z"/>
</svg>
